<svg height="400pt" viewBox="-50 0 400 400.16156" width="400pt" xmlns="http://www.w3.org/2000/svg"><path d="m286.039062 370.160156h-211.917968c-18.738282.003906-33.929688-15.1875-33.929688-33.925781v-284.984375c-.003906-4.792969 1.015625-9.53125 2.980469-13.898438-18.355469.507813-32.976563 15.535157-32.980469 33.898438v284.984375c0 18.734375 15.191406 33.925781 33.925782 33.925781h211.921874c13.359376 0 25.476563-7.835937 30.949219-20.023437-.316406.011719-.628906.023437-.949219.023437zm0 0" fill="#d4e1f4"/><path d="m133.921875 273c-2.613281.007812-5.121094-1.015625-6.988281-2.839844l-40.316406-39.363281c-2.65625-2.453125-3.785157-6.152344-2.941407-9.667969.839844-3.519531 3.511719-6.308594 6.992188-7.296875s7.222656-.023437 9.785156 2.53125l.132813.128907 33.335937 32.542968 65.652344-64.097656c3.957031-3.832031 10.265625-3.746094 14.113281.195312 3.847656 3.941407 3.78125 10.25-.144531 14.113282l-72.636719 70.914062c-1.867188 1.824219-4.375 2.84375-6.984375 2.839844zm0 0" fill="#1ae5be"/><path d="m256.039062 27.160156h-64.285156c-7.285156-16.507812-23.628906-27.160156-41.671875-27.160156-18.046875 0-34.390625 10.652344-41.675781 27.160156h-64.285156c-24.304688.09375-43.972656 19.789063-44.0390628 44.089844v284.984375c.0781248 24.269531 19.7656248 43.910156 44.0390628 43.925781h211.917968c24.273438-.015625 43.960938-19.65625 44.042969-43.925781v-284.984375c-.066406-24.300781-19.738281-43.996094-44.042969-44.089844zm-140.398437 20c4.683594.035156 8.75-3.203125 9.765625-7.773437 2.457031-11.1875 12.835938-19.265625 24.675781-19.265625 11.839844 0 22.214844 8.058594 24.671875 19.246094 1.011719 4.574218 5.082032 7.824218 9.769532 7.800781h19.558593v8.933593c.121094 13.167969-10.457031 23.9375-23.625 24.058594h-60.71875c-13.167969-.101562-23.757812-10.859375-23.65625-24.027344v-8.972656zm164.441406 309.074219c-.070312 13.230469-10.808593 23.921875-24.042969 23.925781h-211.917968c-13.230469-.003906-23.972656-10.695312-24.039063-23.925781v-284.984375c.054688-13.261719 10.777344-24.007812 24.039063-24.089844h31.960937v8.933594c-.113281 24.226562 19.433594 43.953125 43.65625 44.066406h60.683594c24.226563-.113281 43.769531-19.839844 43.660156-44.066406v-8.933594h31.957031c13.265626.082032 23.988282 10.828125 24.042969 24.089844zm0 0" fill="#0635c9"/></svg>